Coordinates
version=1
nRows=161
nColumns=2
inDegrees=no
endheader
time	elbow_flexion
1.5007503751875937	2.080481722058214
1.5017508754377187	2.080619320376078
1.502751375687844	2.0807555668174844
1.5037518759379689	2.0808904744887418
1.5047523761880939	2.0810240563725495
1.505752876438219	2.0811563253290983
1.506753376688344	2.081287294097159
1.507753876938469	2.0814169752951646
1.5087543771885943	2.081545381422276
1.5097548774387193	2.081672524859455
1.5107553776888443	2.081798417870516
1.5117558779389695	2.081923072603171
1.5127563781890945	2.0820465010900753
1.5137568784392195	2.0821687152498534
1.5147573786893445	2.082289726888125
1.5157578789394697	2.082409547698522
1.5167583791895947	2.0825281892636904
1.5177588794397197	2.0826456630562955
1.5187593796898449	2.0827619804400106
1.5197598799399699	2.0828771526705
1.5207603801900949	2.082991190896396
1.52176088044022	2.083104106160267
1.522761380690345	2.083215909399576
1.52376188094047	2.083326611447635
1.5247623811905953	2.083436223034549
1.5257628814407203	2.083544754788152
1.5267633816908452	2.0836522172349388
1.5277638819409705	2.0837586208009853
1.5287643821910955	2.0838639758128643
1.5297648824412204	2.0839682924985503
1.5307653826913457	2.084071580988323
1.5317658829414706	2.084173851315655
1.5327663831915956	2.0842751134181
1.5337668834417209	2.08437537713817
1.5347673836918458	2.0844746522242046
1.5357678839419708	2.0845729483312336
1.5367683841920958	2.0846702750218356
1.537768884442221	2.084766641766986
1.538769384692346	2.084862057946897
1.539769884942471	2.084956532851854
1.5407703851925962	2.085050075683043
1.5417708854427212	2.0851426955533734
1.5427713856928462	2.085234401488288
1.5437718859429714	2.0853252024265756
1.5447723861930964	2.085415107221165
1.5457728864432214	2.0855041246399244
1.5467733866933466	2.0855922633664443
1.5477738869434716	2.08567953200082
1.5487743871935966	2.0857659390604253
1.5497748874437218	2.085851492980676
1.5507753876938468	2.085936202115796
1.5517758879439718	2.086020074739566
1.552776388194097	2.0861031190460753
1.553776888444222	2.086185343150459
1.554777388694347	2.0862667550896363
1.5557778889444722	2.0863473628230365
1.5567783891945972	2.0864271742333216
1.5577788894447222	2.0865061971271035
1.5587793896948474	2.086584439235652
1.5597798899449724	2.0866619082155995
1.5607803901950974	2.0867386116496385
1.5617808904452224	2.0868145570472127
1.5627813906953476	2.0868897518452014
1.5637818909454726	2.086964203408601
1.5647823911955976	2.087037919031198
1.5657828914457228	2.0871109059362345
1.5667833916958478	2.087183171277072
1.5677838919459728	2.087254722137849
1.568784392196098	2.0873255655341256
1.569784892446223	2.087395708413535
1.570785392696348	2.0874651576564167
1.5717858929464732	2.087533920076453
1.5727863931965982	2.0876020024212956
1.5737868934467232	2.0876694113731866
1.5747873936968484	2.0877361535495775
1.5757878939469734	2.0878022355037382
1.5767883941970984	2.087867663725363
1.5777888944472236	2.0879324446411713
1.5787893946973486	2.087996584615504
1.5797898949474736	2.088060089950909
1.5807903951975988	2.088122966888731
1.5817908954477238	2.0881852216096863
1.5827913956978488	2.0882468602344395
1.583791895947974	2.0883078888241697
1.584792396198099	2.0883683133811375
1.585792896448224	2.0884281398492406
1.586793396698349	2.088487374114571
1.5877938969484742	2.08854602200596
1.5887943971985992	2.088604089295525
1.5897948974487242	2.088661581699204
1.5907953976988494	2.0887185048772965
1.5917958979489744	2.0887748644349866
1.5927963981990994	2.088830665922871
1.5937968984492246	2.088885914837475
1.5947973986993496	2.0889406166217723
1.5957978989494745	2.0889947766656904
1.5967983991995998	2.0890484003066208
1.5977988994497248	2.089101492829916
1.5987993996998497	2.0891540594693883
1.599799899949975	2.0892061054078015
1.6008004002001	2.089257635777358
1.601800900450225	2.0893086556601816
1.6028014007003502	2.0893591700887963
1.6038019009504751	2.0894091840466023
1.6048024012006001	2.0894587024683426
1.6058029014507254	2.0895077302405705
1.6068034017008503	2.0895562722021115
1.6078039019509753	2.0896043331445195
1.6088044022011003	2.08965191781253
1.6098049024512255	2.0896990309045074
1.6108054027013505	2.089745677072893
1.6118059029514755	2.089791860924642
1.6128064032016007	2.0898375870216626
1.6138069034517257	2.0898828598812456
1.6148074037018507	2.0899276839764966
1.615807903951976	2.0899720637367567
1.616808404202101	2.090016003548025
1.617808904452226	2.0900595077533763
1.6188094047023511	2.0901025806533715
1.6198099049524761	2.090145226506469
1.6208104052026011	2.090187449529426
1.6218109054527263	2.0902292538977063
1.6228114057028513	2.0902706437458716
1.6238119059529763	2.090311623167979
1.6248124062031015	2.0903521962179714
1.6258129064532265	2.090392366910062
1.6268134067033515	2.0904321392191196
1.6278139069534767	2.0904715170810477
1.6288144072036017	2.0905105043931598
1.6298149074537267	2.0905491050145524
1.630815407703852	2.0905873227664733
1.631815907953977	2.0906251614326887
1.632816408204102	2.0906626247598434
1.633816908454227	2.0906997164578214
1.634817408704352	2.0907364402001
1.635817908954477	2.090772799624103
1.636818409204602	2.090808798331548
1.6378189094547273	2.090844439888792
1.6388194097048523	2.0908797278271765
1.6398199099549773	2.0909146656433633
1.6408204102051025	2.0909492567996706
1.6418209104552275	2.0909835047244067
1.6428214107053525	2.091017412812201
1.6438219109554777	2.091050984424328
1.6448224112056027	2.0910842228890294
1.6458229114557277	2.0911171315018398
1.646823411705853	2.0911497135258985
1.6478239119559779	2.091181972192267
1.6488244122061029	2.091213910700239
1.649824912456228	2.0912455322176497
1.650825412706353	2.0912768398811803
1.651825912956478	2.091307836796661
1.6528264132066033	2.0913385260393706
1.6538269134567283	2.0913689106543347
1.6548274137068533	2.0913989936566177
1.6558279139569785	2.091428778031615
1.6568284142071035	2.091458266735342
1.6578289144572285	2.0914874626947193
1.6588294147073535	2.091516368807856
1.6598299149574787	2.0915449879443306
1.6608304152076037	2.0915733229454667
